<svg width="110" height="17" fill="none" xmlns="http://www.w3.org/2000/svg"><path d="M.438 13v-1.367l1.21-.235V3.234L.438 3V1.625H3.96l4.953 7.89.047-.007V3.234L7.508 3V1.625h4.711V3L11 3.234V13H8.797L3.734 5.187l-.046.008v6.203l1.46.235V13H.438Zm16.632.164c-.807 0-1.513-.177-2.117-.531a3.725 3.725 0 0 1-1.406-1.477c-.328-.625-.492-1.338-.492-2.14v-.313c0-.838.156-1.58.468-2.226a3.684 3.684 0 0 1 1.32-1.532c.574-.375 1.248-.56 2.024-.554.766 0 1.409.15 1.93.453.52.302.916.737 1.187 1.304.271.568.407 1.256.407 2.063v1.242h-4.97l-.015.047c.031.37.123.7.274.992.156.287.375.513.656.68.281.161.622.242 1.023.242.417 0 .805-.052 1.164-.156.365-.11.72-.268 1.063-.477l.617 1.406c-.349.282-.789.516-1.32.704-.526.182-1.13.273-1.813.273Zm-1.633-5.219h2.82v-.203c0-.344-.046-.638-.14-.883a1.122 1.122 0 0 0-.437-.578c-.198-.135-.456-.203-.774-.203-.302 0-.557.08-.765.242a1.57 1.57 0 0 0-.493.649 3.532 3.532 0 0 0-.234.937l.024.04ZM24.212 13l-1.969-6.89-1.031-.188V4.547h4.086v1.367l-.89.172.78 3.289.157.648h.047l.21-.648 1.735-4.828h1.531l1.68 4.89.219.688h.047l.203-.688.922-3.343-.985-.18V4.547h4v1.375l-.984.187L31.82 13h-1.922l-1.546-4.188-.274-.93h-.047l-.273.938L26.234 13h-2.023Zm15.094.164c-.63 0-1.22-.06-1.766-.18a8.084 8.084 0 0 1-1.562-.515l-.024-2.39h1.586l.305 1.218c.177.088.37.159.578.21.213.053.456.079.726.079.51 0 .87-.083 1.079-.25a.77.77 0 0 0 .312-.625c0-.234-.112-.44-.336-.617-.219-.183-.659-.341-1.32-.477-1-.208-1.737-.531-2.211-.969-.474-.437-.711-.997-.711-1.68 0-.468.117-.895.352-1.28.24-.386.601-.696 1.085-.93.49-.235 1.115-.352 1.875-.352.636 0 1.217.063 1.743.188.53.12.976.278 1.336.476l.023 2.313h-1.578l-.242-1.11a1.479 1.479 0 0 0-.5-.234 2.398 2.398 0 0 0-.64-.078c-.402 0-.71.08-.923.242a.75.75 0 0 0-.32.625c0 .146.036.281.11.406.077.125.228.243.452.352.224.11.55.213.977.312 1.047.24 1.81.56 2.289.961.48.396.719.954.719 1.672 0 .787-.287 1.422-.86 1.906-.567.485-1.419.727-2.554.727ZM43.703 13v-1.367l1.211-.235V3.234L43.704 3V1.625h8.827v3.07h-1.75l-.101-1.312h-3.485v2.86h3.852V8h-3.852v3.25h3.672l.102-1.36h1.734V13h-9Zm10.016 0v-1.367l1.086-.14 2.422-2.727-2.29-2.711-1.023-.133V4.547h4.188v1.312l-.657.102 1.227 1.61 1.226-1.61-.726-.102V4.547h4.039v1.375l-.945.133-2.164 2.617 2.414 2.82 1.039.14V13h-4.336v-1.305l.734-.101-1.305-1.617-1.273 1.625.719.093V13h-4.375Zm10.515 3.25v-1.375l1.102-.234V6.156l-1.219-.234V4.547h3.313l.11.984c.25-.364.551-.646.905-.843.355-.198.776-.297 1.266-.297.682 0 1.266.187 1.75.562.484.37.854.888 1.11 1.555.26.666.39 1.445.39 2.336v.164c0 .833-.13 1.562-.39 2.187-.256.62-.628 1.104-1.118 1.453-.484.344-1.07.516-1.758.516-.453 0-.854-.08-1.203-.242a2.46 2.46 0 0 1-.883-.727v2.446l1.102.234v1.375h-4.477Zm4.782-4.836c.583 0 1.005-.216 1.265-.648.266-.433.399-1.019.399-1.758v-.164c0-.537-.06-1.003-.18-1.399-.12-.4-.305-.713-.555-.937-.244-.23-.56-.344-.945-.344-.313 0-.588.07-.828.211-.234.14-.422.341-.563.602v3.703c.141.24.329.422.563.547.24.125.52.187.844.187ZM73.696 13v-1.367l1.1-.235V2.422l-1.218-.235V.813h3.5v10.585l1.102.235V13h-4.485Zm9.109.164c-.834 0-1.55-.182-2.149-.547a3.59 3.59 0 0 1-1.375-1.515c-.318-.652-.476-1.399-.476-2.243v-.164c0-.838.158-1.58.476-2.226a3.595 3.595 0 0 1 1.367-1.524c.6-.37 1.313-.554 2.141-.554.839 0 1.555.185 2.148.554.594.365 1.05.87 1.368 1.516.317.646.476 1.39.476 2.234v.164c0 .844-.159 1.591-.476 2.243a3.605 3.605 0 0 1-1.368 1.515c-.593.365-1.304.547-2.132.547Zm0-1.75c.395 0 .718-.107.968-.32.25-.214.435-.51.555-.89.12-.386.18-.834.18-1.345v-.164c0-.5-.06-.94-.18-1.32-.12-.385-.307-.685-.562-.898-.25-.22-.576-.329-.977-.329-.39 0-.713.11-.969.329-.255.213-.442.513-.562.898-.115.38-.172.82-.172 1.32v.164c0 .51.057.959.172 1.344.12.386.307.685.562.899.256.208.584.312.985.312ZM87.977 13v-1.367l1.093-.235V6.156l-1.21-.234V4.547h3.335l.086 1.047.016.187c.208-.458.466-.804.773-1.039a1.764 1.764 0 0 1 1.102-.351c.135 0 .284.013.445.039.162.02.305.05.43.086l-.242 2.101-1.133-.062c-.323-.016-.586.039-.79.164a1.81 1.81 0 0 0-.53.539v4.14l1.093.235V13h-4.468Zm10.64.164c-.807 0-1.513-.177-2.117-.531a3.725 3.725 0 0 1-1.406-1.477c-.328-.625-.492-1.338-.492-2.14v-.313c0-.838.156-1.58.468-2.226a3.685 3.685 0 0 1 1.32-1.532c.573-.375 1.248-.56 2.024-.554.766 0 1.409.15 1.93.453a2.92 2.92 0 0 1 1.187 1.304c.271.568.407 1.256.407 2.063v1.242h-4.97l-.015.047c.031.37.123.7.274.992.156.287.375.513.656.68.281.161.622.242 1.023.242a4.16 4.16 0 0 0 1.164-.156 4.59 4.59 0 0 0 1.063-.477l.617 1.406c-.349.282-.789.516-1.32.704-.526.182-1.13.273-1.813.273Zm-1.633-5.219h2.82v-.203c0-.344-.046-.638-.14-.883a1.122 1.122 0 0 0-.437-.578c-.198-.135-.456-.203-.774-.203-.302 0-.557.08-.766.242a1.57 1.57 0 0 0-.492.649 3.532 3.532 0 0 0-.234.937l.023.04Zm6.18 5.055v-1.367l1.094-.235V6.156l-1.211-.234V4.547h3.336l.086 1.047.015.187c.209-.458.467-.804.774-1.039.307-.234.674-.351 1.101-.351.136 0 .284.013.446.039.161.02.304.05.429.086l-.242 2.101-1.133-.062c-.323-.016-.586.039-.789.164a1.805 1.805 0 0 0-.531.539v4.14l1.094.235V13h-4.469Z" fill="#fff"/></svg>