<svg width="110" height="17" fill="none" xmlns="http://www.w3.org/2000/svg"><path d="M.438 13v-1.367l1.21-.235V3.234L.438 3V1.625H3.96l4.953 7.89.047-.007V3.234L7.508 3V1.625h4.71V3L11 3.234V13H8.797L3.734 5.187l-.046.008v6.203l1.46.235V13H.438Zm16.632.164c-.812 0-1.52-.177-2.125-.531a3.742 3.742 0 0 1-1.398-1.477c-.328-.625-.492-1.338-.492-2.14v-.313c0-.838.156-1.58.468-2.226a3.684 3.684 0 0 1 1.32-1.532c.574-.375 1.248-.56 2.024-.554 1.14 0 2.013.336 2.617 1.007.604.667.907 1.605.907 2.813v1.242h-4.97l-.015.047c.042.557.227 1.016.555 1.375.328.36.794.54 1.398.54.417 0 .805-.053 1.164-.157.365-.11.72-.268 1.063-.477l.617 1.406c-.349.282-.789.516-1.32.704-.526.182-1.13.273-1.813.273Zm-1.633-5.219h2.82v-.203c0-.51-.106-.914-.32-1.21-.208-.303-.552-.454-1.03-.454-.46 0-.808.175-1.048.524-.24.343-.388.778-.445 1.304l.024.04ZM24.212 13l-1.969-6.89-1.031-.188V4.547h4.086v1.367l-.89.172.78 3.289.157.648h.047l.21-.648 1.735-4.828h1.531l1.68 4.89.219.688h.047l.203-.688.922-3.343-.985-.18V4.547h4v1.375l-.984.187L31.82 13h-1.922l-1.546-4.188-.274-.93h-.047l-.273.938L26.234 13h-2.023Zm15.094.164c-.63 0-1.22-.06-1.766-.18a8.084 8.084 0 0 1-1.562-.515l-.024-2.39h1.586l.305 1.218c.177.088.37.159.578.21.213.053.456.079.726.079.51 0 .87-.083 1.079-.25a.77.77 0 0 0 .312-.625c0-.234-.112-.44-.336-.617-.224-.183-.664-.341-1.32-.477-1.005-.208-1.745-.531-2.219-.969-.469-.437-.703-.997-.703-1.68 0-.463.117-.89.352-1.28.24-.391.601-.701 1.085-.93.49-.235 1.115-.352 1.875-.352.636 0 1.217.063 1.743.188.53.12.976.278 1.336.476l.023 2.313h-1.578l-.242-1.11c-.302-.208-.683-.312-1.14-.312-.397 0-.704.083-.923.25a.743.743 0 0 0-.32.617c0 .219.094.417.281.594.193.172.612.33 1.258.476 1.047.24 1.81.56 2.289.961.48.396.719.954.719 1.672 0 .787-.287 1.422-.86 1.906-.567.485-1.419.727-2.554.727ZM43.703 13v-1.367l1.211-.235V3.234L43.704 3V1.625h8.827v3.07h-1.75l-.101-1.312h-3.485v2.86h3.852V8h-3.852v3.25h3.672l.102-1.36h1.734V13h-9Zm10.016 0v-1.367l1.086-.14 2.422-2.727-2.29-2.711-1.023-.133V4.547h4.188v1.312l-.657.102 1.227 1.61 1.226-1.61-.726-.102V4.547h4.039v1.375l-.945.133-2.164 2.617 2.414 2.82 1.039.14V13h-4.336v-1.305l.734-.101-1.305-1.617-1.273 1.625.719.093V13h-4.375Zm10.515 3.25v-1.375l1.102-.234V6.156l-1.219-.234V4.547h3.313l.11.984c.25-.364.551-.646.905-.843.355-.198.776-.297 1.266-.297.682 0 1.266.187 1.75.562.484.37.854.888 1.11 1.555.26.666.39 1.445.39 2.336v.164c0 .833-.13 1.562-.39 2.187-.261.62-.636 1.104-1.126 1.453-.484.344-1.067.516-1.75.516-.89 0-1.586-.323-2.086-.969v2.446l1.102.234v1.375h-4.477Zm4.782-4.836c.583 0 1.005-.216 1.265-.648.266-.433.399-1.019.399-1.758v-.164c0-.797-.136-1.443-.407-1.938-.27-.495-.695-.742-1.273-.742-.635 0-1.099.27-1.39.813v3.703c.286.49.755.734 1.406.734ZM73.696 13v-1.367l1.1-.235V2.422l-1.218-.235V.813h3.5v10.585l1.102.235V13h-4.485Zm9.109.164c-.839 0-1.558-.182-2.157-.547a3.605 3.605 0 0 1-1.367-1.515c-.318-.652-.476-1.399-.476-2.243v-.164c0-.838.158-1.58.476-2.226a3.595 3.595 0 0 1 1.367-1.524c.6-.37 1.313-.554 2.141-.554.833 0 1.547.182 2.14.546a3.578 3.578 0 0 1 1.376 1.524c.317.646.476 1.39.476 2.234v.164c0 .844-.159 1.591-.476 2.243a3.605 3.605 0 0 1-1.368 1.515c-.593.365-1.304.547-2.132.547Zm0-1.75c.588 0 1.018-.234 1.289-.703.276-.469.414-1.086.414-1.852v-.164c0-.75-.138-1.362-.414-1.836-.276-.474-.711-.71-1.305-.71s-1.026.236-1.297.71c-.27.474-.406 1.086-.406 1.836v.164c0 .771.135 1.391.406 1.86.271.463.709.695 1.313.695ZM87.977 13v-1.367l1.093-.235V6.156l-1.21-.234V4.547h3.335l.086 1.047.016.187c.416-.927 1.041-1.39 1.875-1.39.135 0 .281.01.437.03.162.022.308.053.438.095l-.242 2.101-1.133-.062c-.323-.016-.586.039-.79.164a1.81 1.81 0 0 0-.53.539v4.14l1.093.235V13h-4.468Zm10.64.164c-.812 0-1.52-.177-2.125-.531a3.741 3.741 0 0 1-1.398-1.477c-.328-.625-.492-1.338-.492-2.14v-.313c0-.838.156-1.58.468-2.226a3.685 3.685 0 0 1 1.32-1.532c.573-.375 1.248-.56 2.024-.554 1.14 0 2.013.336 2.617 1.007.604.667.907 1.605.907 2.813v1.242h-4.97l-.015.047c.042.557.227 1.016.555 1.375.328.36.794.54 1.398.54a4.16 4.16 0 0 0 1.164-.157 4.59 4.59 0 0 0 1.063-.477l.617 1.406c-.349.282-.789.516-1.32.704-.526.182-1.13.273-1.813.273Zm-1.633-5.219h2.82v-.203c0-.51-.106-.914-.32-1.21-.208-.303-.552-.454-1.03-.454-.46 0-.808.175-1.048.524-.24.343-.388.778-.445 1.304l.023.04Zm6.18 5.055v-1.367l1.094-.235V6.156l-1.211-.234V4.547h3.336l.086 1.047.015.187c.417-.927 1.042-1.39 1.875-1.39.136 0 .282.01.438.03.161.022.307.053.437.095l-.242 2.101-1.133-.062c-.323-.016-.586.039-.789.164a1.805 1.805 0 0 0-.531.539v4.14l1.094.235V13h-4.469Z" fill="#1A1B22"/></svg>